<svg version="1.1" xmlns="http://www.w3.org/2000/svg" xmlns:xlink="http://www.w3.org/1999/xlink" width="53.448" height="44.27776" viewBox="0,0,53.448,44.27776"><g transform="translate(-207.68753,-156.62687)"><g data-paper-data="{&quot;isPaintingLayer&quot;:true}" fill-rule="nonzero" stroke-linecap="butt" stroke-linejoin="miter" stroke-miterlimit="10" stroke-dasharray="" stroke-dashoffset="0" style="mix-blend-mode: normal"><path d="M216.62085,199.7105l-8.65423,-20.43404c0,0 6.05169,-10.35628 9.80306,-12.10013c4.41628,-2.05294 13.58517,-0.45026 21.44898,-1.99002c7.96478,-1.55953 13.41523,-8.07959 13.41523,-8.07959l8.20357,20.24348c0,0 -8.42506,7.4647 -13.97227,9.75471c-4.32029,1.78351 -12.41341,-0.8659 -19.50606,0.9027c-6.71449,1.67431 -10.73828,11.70287 -10.73828,11.70287z" fill="#000000" stroke="#ffffff" stroke-width="0.5"/><path d="M234.55631,182.38014c-2.95462,1.36112 -6.35427,-0.01412 -7.59333,-3.07168c-1.23906,-3.05756 0.15167,-6.63961 3.10629,-8.00072c2.95462,-1.36112 6.35427,0.01412 7.59333,3.07168c1.23906,3.05756 -0.15167,6.63961 -3.10629,8.00072z" fill="#000000" stroke="#ffffff" stroke-width="2.5"/><text transform="translate(229.67521,181.39364) rotate(-24.73432) scale(0.21509,0.2245) skewX(-2.79111)" font-size="40" xml:space="preserve" fill="#ffffff" fill-rule="nonzero" stroke="none" stroke-width="1" stroke-linecap="butt" stroke-linejoin="miter" stroke-miterlimit="10" stroke-dasharray="" stroke-dashoffset="0" font-family="Sans Serif" font-weight="normal" text-anchor="start" style="mix-blend-mode: normal"><tspan x="0" dy="0">金</tspan></text></g></g></svg>