<svg version="1.1" xmlns="http://www.w3.org/2000/svg" xmlns:xlink="http://www.w3.org/1999/xlink" width="483.64658" height="363" viewBox="0,0,483.64658,363"><defs><linearGradient x1="240" y1="-1.49999" x2="240" y2="361.5" gradientUnits="userSpaceOnUse" id="color-1"><stop offset="0" stop-color="#65fffc"/><stop offset="1" stop-color="#65a5ff"/></linearGradient></defs><g transform="translate(2.14658,1.5)"><g data-paper-data="{&quot;isPaintingLayer&quot;:true}" fill-rule="nonzero" stroke-linejoin="miter" stroke-miterlimit="10" stroke-dasharray="" stroke-dashoffset="0" style="mix-blend-mode: normal"><path d="M-1.5,361.5v-363h483v363z" fill="url(#color-1)" stroke="none" stroke-width="0" stroke-linecap="butt"/><path d="M241.125,34.18841l72.125,0.35529" data-paper-data="{&quot;index&quot;:null}" fill="none" stroke="#ffffff" stroke-width="15" stroke-linecap="round"/><path d="M289.125,45.65361l-62.75,-0.30911" data-paper-data="{&quot;index&quot;:null}" fill="none" stroke="#ffffff" stroke-width="15" stroke-linecap="round"/><path d="M480.29198,240.75236c-126.71088,6.70269 -294.43614,7.47973 -368.36405,-2.42643c-5.338,-0.71527 -4.46925,-48.05892 0.51296,-52.36882c41.95213,-36.29101 245.35152,-176.90203 245.35152,-176.90203c0,0 57.50541,41.77281 121.04459,88.33807c1.00391,0.73573 2.75383,143.29052 1.45499,143.35922z" fill="#00b247" stroke="none" stroke-width="0" stroke-linecap="butt"/><path d="M234.5441,235.16668c-77.02439,0.34625 -81.60591,8.15214 -123.2268,2.57504c-5.338,-0.71527 -4.46925,-48.05892 0.51296,-52.36882c41.95214,-36.29101 245.35151,-176.90203 245.35151,-176.90203c0,0 -65.51213,226.43901 -122.63767,226.69581z" fill="#005a24" stroke="none" stroke-width="0" stroke-linecap="butt"/><path d="M295.50742,215.77569c0,16.36341 -225.01445,27.47277 -296.16311,14.73745c-0.20493,-0.03668 -0.53478,-39.48089 -0.37828,-39.66173c23.58531,-27.25413 137.93557,-132.85141 137.93557,-132.85141c0,0 158.60582,151.95535 158.60582,157.77569z" fill="#00b247" stroke="none" stroke-width="0" stroke-linecap="butt"/><path d="M68.20523,227.99597c-43.30278,0.26003 -45.87849,6.12217 -69.27758,1.93383c-0.24305,-0.04351 -0.23427,-10.07225 -0.13169,-19.99055c0.09976,-9.64495 0.28821,-19.18547 0.42007,-19.33784c23.58531,-27.25413 137.93557,-132.85141 137.93557,-132.85141c0,0 -36.83064,170.05312 -68.94637,170.24597z" fill="#005a24" stroke="none" stroke-width="0" stroke-linecap="butt"/><path d="M-2.14657,268v-53c0,0 84.17062,-8 142,-8c63.96999,0 155.65282,20.11721 234.0165,22.44432c30.87049,0.91674 106.9835,-14.44432 106.9835,-14.44432v53z" fill="#00e75c" stroke="none" stroke-width="0" stroke-linecap="butt"/><path d="M87.20685,212.00276c0,10.35534 -11.97638,18.75 -26.75,18.75c-14.77361,0 -26.75,-8.39466 -26.75,-18.75c0,-10.35534 11.97639,-18.75 26.75,-18.75c14.77362,0 26.75,8.39466 26.75,18.75z" fill="#00b348" stroke="none" stroke-width="0" stroke-linecap="butt"/><path d="M0,300.00001v-62c0,0 98.72799,16 157,16c42.31729,0 106.85949,-11.66317 174.14288,-15.48397c73.33407,-4.1644 147.85713,13.48397 147.85713,13.48397v48z" fill="#00cb51" stroke="none" stroke-width="0" stroke-linecap="butt"/><path d="M-1,360.00001v-74c0,0 95.75862,-7 133,-7c39.41617,0 119.22697,6.8563 193.06042,10.89556c81.1881,4.44161 154.93958,-3.89556 154.93958,-3.89556v74z" fill="#00b348" stroke="none" stroke-width="0" stroke-linecap="butt"/><path d="M40.70685,212.00276c0,10.35534 -11.97639,18.75 -26.75,18.75c-5.15131,0 -9.96253,-1.02062 -14.04453,-2.78911c-0.60527,-0.26223 -1.27303,-31.33697 -0.94875,-31.49108c4.2766,-2.03245 9.43712,-3.21981 14.99329,-3.21981c14.77362,0 26.75,8.39466 26.75,18.75z" fill="#00b348" stroke="none" stroke-width="0" stroke-linecap="butt"/><path d="M52.70685,190.50276c0,10.35534 -11.97639,18.75 -26.75,18.75c-14.77361,0 -26.75,-8.39466 -26.75,-18.75c0,-10.35534 11.97639,-18.75 26.75,-18.75c14.77361,0 26.75,8.39466 26.75,18.75z" fill="#00b348" stroke="none" stroke-width="0" stroke-linecap="butt"/><path d="M72.70685,191.50276c0,10.35534 -11.97638,18.75 -26.75,18.75c-14.77361,0 -26.75,-8.39466 -26.75,-18.75c0,-10.35534 11.97639,-18.75 26.75,-18.75c14.77362,0 26.75,8.39466 26.75,18.75z" fill="#00b348" stroke="none" stroke-width="0" stroke-linecap="butt"/><path d="M59.95685,173.50276c0,10.35534 -10.46534,18.75 -23.375,18.75c-12.90965,0 -23.375,-8.39466 -23.375,-18.75c0,-10.35534 10.46535,-18.75 23.375,-18.75c12.90966,0 23.375,8.39466 23.375,18.75z" fill="#00b348" stroke="none" stroke-width="0" stroke-linecap="butt"/><path d="M54.88185,221.45276c0,4.80488 -6.98436,8.7 -15.6,8.7c-8.61564,0 -15.6,-3.89513 -15.6,-8.7c0,-4.80488 6.98436,-8.7 15.6,-8.7c8.61564,0 15.6,3.89512 15.6,8.7z" fill="#00b348" stroke="none" stroke-width="0" stroke-linecap="butt"/><path d="M20.47837,291.38006c0,0 9.50023,-5.81362 9.86363,-9.15952c0.13892,-1.27906 1.20413,-14.81253 1.32359,-27.74114c0.11429,-12.36956 -0.71408,-24.18545 -0.71408,-24.18545l-10.47259,-7.47702l12.58404,5.57091l-6.53807,-10.25714l10.57921,9.44983l13.13382,-8.96874l-8.69991,10.06738l18.58423,-5.78275l-16.13929,7.56049c0,0 -1.3403,11.86916 -1.64475,24.19513c-0.31314,12.6774 0.41164,25.83804 0.58357,27.06534c0.19052,1.36001 10.96602,6.68845 10.96602,6.68845l-11.03353,-1.50131l3.44775,7.7577c0,0 -7.59451,-6.15387 -9.26884,-6.25704c-0.75417,-0.04647 -8.80885,6.61729 -8.80885,6.61729c0,0 3.99943,-7.73037 2.44123,-7.34431c-4.39093,1.08787 -10.18716,3.70189 -10.18716,3.70189z" fill="#b36800" stroke="none" stroke-width="0" stroke-linecap="butt"/><path d="M386.19728,249.30299v-33.09441h12.93345v33.09441l4.87473,8.27644l-6.25299,-1.4559l-5.30928,2.34457l-4.52792,-2.61812l-6.78991,1.82171z" fill="#b46900" stroke="none" stroke-width="0" stroke-linecap="butt"/><path d="M386.21546,249.24845v-33.09441l4.17915,-0.55079l-0.20342,41.49767l-2.25775,-1.30547l-6.78991,1.8217z" fill="#8c5200" stroke="none" stroke-width="0" stroke-linecap="butt"/><path d="M371.0221,236.04607l22.26581,-34.38775l22.36726,34.38776z" fill="#007f33" stroke="none" stroke-width="0" stroke-linecap="butt"/><path d="M370.86994,220.67809l22.26582,-34.38775l22.36726,34.38775z" fill="#007f33" stroke="none" stroke-width="0" stroke-linecap="butt"/><path d="M371.47858,206.98385l22.26582,-34.38775l22.36726,34.38776z" fill="#007f33" stroke="none" stroke-width="0" stroke-linecap="butt"/><path d="M335.20545,260.99912v-34.19166h13.36226v34.19167l5.03634,8.55085l-6.46031,-1.50417l-5.48532,2.4223l-4.67805,-2.70493l-7.01503,1.88211z" fill="#b46900" stroke="none" stroke-width="0" stroke-linecap="butt"/><path d="M335.13061,261.16965v-33.09441l4.17915,-0.55079l-0.20342,41.49767l-2.25775,-1.30547l-6.78991,1.82171z" fill="#8c5200" stroke="none" stroke-width="0" stroke-linecap="butt"/><path d="M319.52715,247.30266l23.00404,-35.52789l23.10885,35.52789z" fill="#007f33" stroke="none" stroke-width="0" stroke-linecap="butt"/><path d="M319.36994,231.42515l23.00405,-35.52788l23.10885,35.52788z" fill="#007f33" stroke="none" stroke-width="0" stroke-linecap="butt"/><path d="M319.99876,217.27688l23.00404,-35.52789l23.10885,35.52789z" fill="#007f33" stroke="none" stroke-width="0" stroke-linecap="butt"/><path d="M282.19728,248.30299v-33.09441h12.93345v33.09441l4.87473,8.27644l-6.25299,-1.4559l-5.30928,2.34457l-4.52792,-2.61812l-6.78991,1.82171z" fill="#b46900" stroke="none" stroke-width="0" stroke-linecap="butt"/><path d="M282.19728,248.30299v-33.09441l4.17915,-0.5508l-0.20342,41.49767l-2.25775,-1.30547l-6.78991,1.82171z" fill="#8c5200" stroke="none" stroke-width="0" stroke-linecap="butt"/><path d="M267.0221,235.04607l22.26581,-34.38775l22.36726,34.38776z" fill="#007f33" stroke="none" stroke-width="0" stroke-linecap="butt"/><path d="M266.86994,219.67809l22.26582,-34.38775l22.36726,34.38775z" fill="#007f33" stroke="none" stroke-width="0" stroke-linecap="butt"/><path d="M267.47857,205.98385l22.26582,-34.38775l22.36726,34.38776z" fill="#007f33" stroke="none" stroke-width="0" stroke-linecap="butt"/><path d="M20.47837,291.38006c0,0 9.50023,-5.81362 9.86363,-9.15952c0.13892,-1.27906 1.20413,-14.81253 1.32359,-27.74114c0.11429,-12.36956 -0.71408,-24.18545 -0.71408,-24.18545l-10.47259,-7.47702l12.58404,5.57091l-6.53807,-10.25714l10.57921,9.44983c0,0 -1.42774,18.44261 -1.41546,35.1028c0.00988,13.39726 1.48098,25.73026 1.34452,25.72185c-0.75417,-0.04647 -8.80885,6.61729 -8.80885,6.61729c0,0 3.99943,-7.73037 2.44123,-7.34431c-4.39093,1.08787 -10.18716,3.70189 -10.18716,3.70189z" fill="#8c5200" stroke="none" stroke-width="0" stroke-linecap="butt"/><path d="M15.375,47.83342l50.75,-0.25" fill="none" stroke="#ffffff" stroke-width="15" stroke-linecap="round"/><path d="M33.375,60.83342l50.75,-0.25" fill="none" stroke="#ffffff" stroke-width="15" stroke-linecap="round"/><path d="M421.625,49.33342l50.75,0.27128" data-paper-data="{&quot;index&quot;:null}" fill="none" stroke="#ffffff" stroke-width="15" stroke-linecap="round"/><path d="M455.875,62.08342l-50.75,-0.27128" data-paper-data="{&quot;index&quot;:null}" fill="none" stroke="#ffffff" stroke-width="15" stroke-linecap="round"/><path d="M217.375,81.33342l-50.75,0.25" data-paper-data="{&quot;index&quot;:null}" fill="none" stroke="#ffffff" stroke-width="15" stroke-linecap="round"/><path d="M199.375,68.33342l-50.75,0.25" data-paper-data="{&quot;index&quot;:null}" fill="none" stroke="#ffffff" stroke-width="15" stroke-linecap="round"/></g></g></svg>