<svg version="1.1" xmlns="http://www.w3.org/2000/svg" xmlns:xlink="http://www.w3.org/1999/xlink" width="375.03003" height="367" viewBox="0,0,375.03003,367"><defs><linearGradient x1="45.80304" y1="74.27598" x2="340.18262" y2="74.27598" gradientUnits="userSpaceOnUse" id="color-1"><stop offset="0" stop-color="#ffc500"/><stop offset="1" stop-color="#ff9600"/></linearGradient><linearGradient x1="12.13398" y1="74.1494" x2="58.74917" y2="74.1494" gradientUnits="userSpaceOnUse" id="color-2"><stop offset="0" stop-color="#ffbb00"/><stop offset="1" stop-color="#fe9c00"/></linearGradient><linearGradient x1="50.80304" y1="119.77599" x2="338.18262" y2="119.77599" gradientUnits="userSpaceOnUse" id="color-3"><stop offset="0" stop-color="#808080"/><stop offset="1" stop-color="#d6d6d6"/></linearGradient><linearGradient x1="12.13398" y1="119.64941" x2="58.74918" y2="119.64941" gradientUnits="userSpaceOnUse" id="color-4"><stop offset="0" stop-color="#808080"/><stop offset="1" stop-color="#d6d6d6"/></linearGradient><linearGradient x1="28.41174" y1="119.05392" x2="43.88516" y2="119.05392" gradientTransform="translate(-42.01117,-200.18916) scale(1.47861,1.58448)" gradientUnits="userSpaceOnUse" id="color-5"><stop offset="0" stop-color="#808080"/><stop offset="1" stop-color="#d6d6d6"/></linearGradient><linearGradient x1="45.80304" y1="166.77599" x2="340.18262" y2="166.77599" gradientUnits="userSpaceOnUse" id="color-6"><stop offset="0" stop-color="#8a4900"/><stop offset="1" stop-color="#d87500"/></linearGradient><linearGradient x1="12.13398" y1="166.64941" x2="58.74918" y2="166.64941" gradientUnits="userSpaceOnUse" id="color-7"><stop offset="0" stop-color="#8a4900"/><stop offset="1" stop-color="#d87500"/></linearGradient><linearGradient x1="28.41174" y1="166.0499" x2="43.88516" y2="166.0499" gradientTransform="translate(-42.01117,-274.65995) scale(1.47861,1.58448)" gradientUnits="userSpaceOnUse" id="color-8"><stop offset="0" stop-color="#8a4900"/><stop offset="1" stop-color="#d87500"/></linearGradient><linearGradient x1="49.80304" y1="243.27598" x2="344.18262" y2="243.27598" gradientUnits="userSpaceOnUse" id="color-9"><stop offset="0" stop-color="#ffc500"/><stop offset="1" stop-color="#ff9600"/></linearGradient><linearGradient x1="16.13398" y1="243.1494" x2="62.74917" y2="243.1494" gradientUnits="userSpaceOnUse" id="color-10"><stop offset="0" stop-color="#ffbb00"/><stop offset="1" stop-color="#fe9c00"/></linearGradient><linearGradient x1="54.80304" y1="288.77599" x2="342.18262" y2="288.77599" gradientUnits="userSpaceOnUse" id="color-11"><stop offset="0" stop-color="#808080"/><stop offset="1" stop-color="#d6d6d6"/></linearGradient><linearGradient x1="16.13398" y1="288.64941" x2="62.74918" y2="288.64941" gradientUnits="userSpaceOnUse" id="color-12"><stop offset="0" stop-color="#808080"/><stop offset="1" stop-color="#d6d6d6"/></linearGradient><linearGradient x1="32.4117" y1="288.05138" x2="47.88512" y2="288.05138" gradientTransform="translate(-47.92562,-467.96708) scale(1.47861,1.58448)" gradientUnits="userSpaceOnUse" id="color-13"><stop offset="0" stop-color="#808080"/><stop offset="1" stop-color="#d6d6d6"/></linearGradient><linearGradient x1="49.80304" y1="335.77599" x2="344.18262" y2="335.77599" gradientUnits="userSpaceOnUse" id="color-14"><stop offset="0" stop-color="#8a4900"/><stop offset="1" stop-color="#d87500"/></linearGradient><linearGradient x1="16.13398" y1="335.64941" x2="62.74918" y2="335.64941" gradientUnits="userSpaceOnUse" id="color-15"><stop offset="0" stop-color="#8a4900"/><stop offset="1" stop-color="#d87500"/></linearGradient><linearGradient x1="32.4117" y1="335.04739" x2="47.88512" y2="335.04739" gradientTransform="translate(-47.92562,-542.43786) scale(1.47861,1.58448)" gradientUnits="userSpaceOnUse" id="color-16"><stop offset="0" stop-color="#8a4900"/><stop offset="1" stop-color="#d87500"/></linearGradient></defs><g transform="translate(4.17371,5.11527)"><g data-paper-data="{&quot;isPaintingLayer&quot;:true}" fill-rule="nonzero" stroke-linecap="butt" stroke-linejoin="miter" stroke-miterlimit="10" stroke-dasharray="" stroke-dashoffset="0" style="mix-blend-mode: normal"><path d="M-4.17371,361.88473v-367h375.03003v367z" fill="#000000" stroke="none" stroke-width="0"/><text transform="translate(3.95318,20.04129) scale(0.5,0.5)" font-size="40" xml:space="preserve" fill="#ffffff" fill-rule="nonzero" stroke="none" stroke-width="1" stroke-linecap="butt" stroke-linejoin="miter" stroke-miterlimit="10" stroke-dasharray="" stroke-dashoffset="0" font-family="Sans Serif" font-weight="normal" text-anchor="start" style="mix-blend-mode: normal"><tspan x="0" dy="0">ベスト3</tspan></text><path d="M45.80304,89.77598v-31c0,0 196.64107,0 246.83375,0c22.02897,0 47.54583,2.52808 47.54583,15.33333c0,12.52748 -24.26576,15.66667 -45.52261,15.66667c-49.70047,0 -248.85697,0 -248.85697,0z" fill="url(#color-1)" stroke="none" stroke-width="0"/><path d="M35.44158,53.6494c12.87243,0 23.30759,9.17816 23.30759,20.5c0,11.32184 -10.43516,20.5 -23.30759,20.5c-12.87243,0 -23.30759,-9.17816 -23.30759,-20.5c0,-11.32184 10.43516,-20.5 23.30759,-20.5z" fill="url(#color-2)" stroke="none" stroke-width="0"/><text transform="translate(28.41258,80.84339) scale(0.6763,0.63112)" font-size="40" xml:space="preserve" fill="#ffbb00" fill-rule="nonzero" stroke="#ffffff" stroke-width="1" stroke-linecap="butt" stroke-linejoin="miter" stroke-miterlimit="10" stroke-dasharray="" stroke-dashoffset="0" font-family="Sans Serif" font-weight="normal" text-anchor="start" style="mix-blend-mode: normal"><tspan x="0" dy="0">1</tspan></text><path d="M50.80304,135.27599v-31c0,0 191.96518,0 240.96433,0c21.50515,0 46.41525,2.52807 46.41525,15.33333c0,12.52748 -23.68873,15.66667 -44.44014,15.66667c-48.51865,0 -242.93944,0 -242.93944,0z" fill="url(#color-3)" stroke="none" stroke-width="0"/><path d="M35.44158,99.14941c12.87243,0 23.30759,9.17817 23.30759,20.5c0,11.32183 -10.43516,20.5 -23.30759,20.5c-12.87242,0 -23.30759,-9.17817 -23.30759,-20.5c0,-11.32183 10.43517,-20.5 23.30759,-20.5z" fill="url(#color-4)" stroke="none" stroke-width="0"/><text transform="translate(28.41258,126.34339) scale(0.67631,0.63112)" font-size="40" xml:space="preserve" fill="url(#color-5)" fill-rule="nonzero" stroke="#ffffff" stroke-width="1" stroke-linecap="butt" stroke-linejoin="miter" stroke-miterlimit="10" stroke-dasharray="" stroke-dashoffset="0" font-family="Sans Serif" font-weight="normal" text-anchor="start" style="mix-blend-mode: normal"><tspan x="0" dy="0">2</tspan></text><path d="M45.80304,182.27599v-31c0,0 196.64107,0 246.83375,0c22.02897,0 47.54583,2.52807 47.54583,15.33333c0,12.52748 -24.26574,15.66667 -45.52261,15.66667c-49.70047,0 -248.85697,0 -248.85697,0z" fill="url(#color-6)" stroke="none" stroke-width="0"/><path d="M35.44158,146.14941c12.87242,0 23.30759,9.17817 23.30759,20.5c0,11.32183 -10.43517,20.5 -23.30759,20.5c-12.87242,0 -23.30759,-9.17817 -23.30759,-20.5c0,-11.32183 10.43517,-20.5 23.30759,-20.5z" fill="url(#color-7)" stroke="none" stroke-width="0"/><text transform="translate(28.41258,173.34339) scale(0.67631,0.63112)" font-size="40" xml:space="preserve" fill="url(#color-8)" fill-rule="nonzero" stroke="#ffffff" stroke-width="1" stroke-linecap="butt" stroke-linejoin="miter" stroke-miterlimit="10" stroke-dasharray="" stroke-dashoffset="0" font-family="Sans Serif" font-weight="normal" text-anchor="start" style="mix-blend-mode: normal"><tspan x="0" dy="0">3</tspan></text><text transform="translate(58.4145,80.64441) scale(0.2712,0.5)" font-size="40" xml:space="preserve" fill="#ffffff" fill-rule="nonzero" stroke="none" stroke-width="1" stroke-linecap="butt" stroke-linejoin="miter" stroke-miterlimit="10" stroke-dasharray="" stroke-dashoffset="0" font-family="Sans Serif" font-weight="normal" text-anchor="start" style="mix-blend-mode: normal"><tspan x="0" dy="0">ユーザ名不明</tspan></text><path d="M49.80304,258.77598v-31c0,0 196.64107,0 246.83375,0c22.02897,0 47.54583,2.52808 47.54583,15.33333c0,12.52748 -24.26576,15.66667 -45.52261,15.66667c-49.70047,0 -248.85697,0 -248.85697,0z" fill="url(#color-9)" stroke="none" stroke-width="0"/><path d="M39.44158,222.6494c12.87243,0 23.30759,9.17816 23.30759,20.5c0,11.32184 -10.43516,20.5 -23.30759,20.5c-12.87243,0 -23.30759,-9.17816 -23.30759,-20.5c0,-11.32184 10.43516,-20.5 23.30759,-20.5z" fill="url(#color-10)" stroke="none" stroke-width="0"/><text transform="translate(32.41258,249.84339) scale(0.6763,0.63112)" font-size="40" xml:space="preserve" fill="#ffbb00" fill-rule="nonzero" stroke="#ffffff" stroke-width="1" stroke-linecap="butt" stroke-linejoin="miter" stroke-miterlimit="10" stroke-dasharray="" stroke-dashoffset="0" font-family="Sans Serif" font-weight="normal" text-anchor="start" style="mix-blend-mode: normal"><tspan x="0" dy="0">1</tspan></text><path d="M54.80304,304.27599v-31c0,0 191.96518,0 240.96433,0c21.50515,0 46.41525,2.52807 46.41525,15.33333c0,12.52748 -23.68873,15.66667 -44.44014,15.66667c-48.51865,0 -242.93944,0 -242.93944,0z" fill="url(#color-11)" stroke="none" stroke-width="0"/><path d="M39.44158,268.14941c12.87243,0 23.30759,9.17817 23.30759,20.5c0,11.32183 -10.43516,20.5 -23.30759,20.5c-12.87242,0 -23.30759,-9.17817 -23.30759,-20.5c0,-11.32183 10.43517,-20.5 23.30759,-20.5z" fill="url(#color-12)" stroke="none" stroke-width="0"/><text transform="translate(32.41258,295.34339) scale(0.67631,0.63112)" font-size="40" xml:space="preserve" fill="url(#color-13)" fill-rule="nonzero" stroke="#ffffff" stroke-width="1" stroke-linecap="butt" stroke-linejoin="miter" stroke-miterlimit="10" stroke-dasharray="" stroke-dashoffset="0" font-family="Sans Serif" font-weight="normal" text-anchor="start" style="mix-blend-mode: normal"><tspan x="0" dy="0">2</tspan></text><path d="M49.80304,351.27599v-31c0,0 196.64107,0 246.83375,0c22.02897,0 47.54583,2.52807 47.54583,15.33333c0,12.52748 -24.26574,15.66667 -45.52261,15.66667c-49.70047,0 -248.85697,0 -248.85697,0z" fill="url(#color-14)" stroke="none" stroke-width="0"/><path d="M39.44158,315.14941c12.87242,0 23.30759,9.17817 23.30759,20.5c0,11.32183 -10.43517,20.5 -23.30759,20.5c-12.87242,0 -23.30759,-9.17817 -23.30759,-20.5c0,-11.32183 10.43517,-20.5 23.30759,-20.5z" fill="url(#color-15)" stroke="none" stroke-width="0"/><text transform="translate(32.41258,342.34339) scale(0.67631,0.63112)" font-size="40" xml:space="preserve" fill="url(#color-16)" fill-rule="nonzero" stroke="#ffffff" stroke-width="1" stroke-linecap="butt" stroke-linejoin="miter" stroke-miterlimit="10" stroke-dasharray="" stroke-dashoffset="0" font-family="Sans Serif" font-weight="normal" text-anchor="start" style="mix-blend-mode: normal"><tspan x="0" dy="0">3</tspan></text><text transform="translate(4.95318,45.04129) scale(0.5,0.5)" font-size="40" xml:space="preserve" fill="#ffffff" fill-rule="nonzero" stroke="none" stroke-width="1" stroke-linecap="butt" stroke-linejoin="miter" stroke-miterlimit="10" stroke-dasharray="" stroke-dashoffset="0" font-family="Sans Serif" font-weight="normal" text-anchor="start" style="mix-blend-mode: normal"><tspan x="0" dy="0">今月</tspan></text><text transform="translate(7.95318,212.04129) scale(0.5375,0.5)" font-size="40" xml:space="preserve" fill="#ffffff" fill-rule="nonzero" stroke="none" stroke-width="1" stroke-linecap="butt" stroke-linejoin="miter" stroke-miterlimit="10" stroke-dasharray="" stroke-dashoffset="0" font-family="Sans Serif" font-weight="normal" text-anchor="start" style="mix-blend-mode: normal"><tspan x="0" dy="0">総合</tspan></text><text transform="translate(192.83994,81.88191) scale(0.21364,0.5)" font-size="40" xml:space="preserve" fill="#ffffff" fill-rule="nonzero" stroke="none" stroke-width="1" stroke-linecap="butt" stroke-linejoin="miter" stroke-miterlimit="10" stroke-dasharray="" stroke-dashoffset="0" font-family="Sans Serif" font-weight="normal" text-anchor="start" style="mix-blend-mode: normal"><tspan x="0" dy="0">記録なし</tspan></text><text transform="translate(192.81137,125.25284) scale(0.24375,0.5)" font-size="40" xml:space="preserve" fill="#ffffff" fill-rule="nonzero" stroke="none" stroke-width="1" stroke-linecap="butt" stroke-linejoin="miter" stroke-miterlimit="10" stroke-dasharray="" stroke-dashoffset="0" font-family="Sans Serif" font-weight="normal" text-anchor="start" style="mix-blend-mode: normal"><tspan x="0" dy="0">記録なし</tspan></text><text transform="translate(60.81137,125.25284) scale(0.24375,0.5)" font-size="40" xml:space="preserve" fill="#ffffff" fill-rule="nonzero" stroke="none" stroke-width="1" stroke-linecap="butt" stroke-linejoin="miter" stroke-miterlimit="10" stroke-dasharray="" stroke-dashoffset="0" font-family="Sans Serif" font-weight="normal" text-anchor="start" style="mix-blend-mode: normal"><tspan x="0" dy="0">ユーザ名不明</tspan></text><text transform="translate(191.81137,170.25284) scale(0.24375,0.5)" font-size="40" xml:space="preserve" fill="#ffffff" fill-rule="nonzero" stroke="none" stroke-width="1" stroke-linecap="butt" stroke-linejoin="miter" stroke-miterlimit="10" stroke-dasharray="" stroke-dashoffset="0" font-family="Sans Serif" font-weight="normal" text-anchor="start" style="mix-blend-mode: normal"><tspan x="0" dy="0">記録なし</tspan></text><text transform="translate(59.81137,170.25284) scale(0.24375,0.5)" font-size="40" xml:space="preserve" fill="#ffffff" fill-rule="nonzero" stroke="none" stroke-width="1" stroke-linecap="butt" stroke-linejoin="miter" stroke-miterlimit="10" stroke-dasharray="" stroke-dashoffset="0" font-family="Sans Serif" font-weight="normal" text-anchor="start" style="mix-blend-mode: normal"><tspan x="0" dy="0">ユーザ名不明</tspan></text><text transform="translate(192.81137,250.25284) scale(0.24375,0.5)" font-size="40" xml:space="preserve" fill="#ffffff" fill-rule="nonzero" stroke="none" stroke-width="1" stroke-linecap="butt" stroke-linejoin="miter" stroke-miterlimit="10" stroke-dasharray="" stroke-dashoffset="0" font-family="Sans Serif" font-weight="normal" text-anchor="start" style="mix-blend-mode: normal"><tspan x="0" dy="0">103021019クリック</tspan></text><text transform="translate(60.81137,250.25284) scale(0.24375,0.5)" font-size="40" xml:space="preserve" fill="#ffffff" fill-rule="nonzero" stroke="none" stroke-width="1" stroke-linecap="butt" stroke-linejoin="miter" stroke-miterlimit="10" stroke-dasharray="" stroke-dashoffset="0" font-family="Sans Serif" font-weight="normal" text-anchor="start" style="mix-blend-mode: normal"><tspan x="0" dy="0">meronnpan1122</tspan></text><text transform="translate(192.81137,294.25284) scale(0.24375,0.5)" font-size="40" xml:space="preserve" fill="#ffffff" fill-rule="nonzero" stroke="none" stroke-width="1" stroke-linecap="butt" stroke-linejoin="miter" stroke-miterlimit="10" stroke-dasharray="" stroke-dashoffset="0" font-family="Sans Serif" font-weight="normal" text-anchor="start" style="mix-blend-mode: normal"><tspan x="0" dy="0">記録なし</tspan></text><text transform="translate(60.81137,294.25284) scale(0.24375,0.5)" font-size="40" xml:space="preserve" fill="#ffffff" fill-rule="nonzero" stroke="none" stroke-width="1" stroke-linecap="butt" stroke-linejoin="miter" stroke-miterlimit="10" stroke-dasharray="" stroke-dashoffset="0" font-family="Sans Serif" font-weight="normal" text-anchor="start" style="mix-blend-mode: normal"><tspan x="0" dy="0">ユーザ名不明</tspan></text><text transform="translate(189.81137,342.25284) scale(0.24375,0.5)" font-size="40" xml:space="preserve" fill="#ffffff" fill-rule="nonzero" stroke="none" stroke-width="1" stroke-linecap="butt" stroke-linejoin="miter" stroke-miterlimit="10" stroke-dasharray="" stroke-dashoffset="0" font-family="Sans Serif" font-weight="normal" text-anchor="start" style="mix-blend-mode: normal"><tspan x="0" dy="0">記録なし</tspan></text><text transform="translate(57.81137,342.25284) scale(0.24375,0.5)" font-size="40" xml:space="preserve" fill="#ffffff" fill-rule="nonzero" stroke="none" stroke-width="1" stroke-linecap="butt" stroke-linejoin="miter" stroke-miterlimit="10" stroke-dasharray="" stroke-dashoffset="0" font-family="Sans Serif" font-weight="normal" text-anchor="start" style="mix-blend-mode: normal"><tspan x="0" dy="0">ユーザ名不明</tspan></text></g></g></svg>