<svg version="1.1" xmlns="http://www.w3.org/2000/svg" xmlns:xlink="http://www.w3.org/1999/xlink" width="518.5072" height="376.52716" viewBox="0,0,518.5072,376.52716"><defs><linearGradient x1="239.24926" y1="-7.39985" x2="239.24926" y2="303.41096" gradientUnits="userSpaceOnUse" id="color-1"><stop offset="0" stop-color="#89b6ff"/><stop offset="1" stop-color="#92d5ff"/></linearGradient></defs><g transform="translate(20.52433,7.39985)"><g data-paper-data="{&quot;isPaintingLayer&quot;:true}" fill-rule="nonzero" stroke-linejoin="miter" stroke-miterlimit="10" stroke-dasharray="" stroke-dashoffset="0" style="mix-blend-mode: normal"><g stroke="none" stroke-linecap="butt"><text transform="translate(109.14001,213.76113) scale(2.92621,2.92621)" font-size="40" xml:space="preserve" fill="#ffffff" fill-rule="nonzero" stroke="none" stroke-width="1" stroke-linecap="butt" stroke-linejoin="miter" stroke-miterlimit="10" stroke-dasharray="" stroke-dashoffset="0" font-family="Sans Serif" font-weight="normal" text-anchor="start" style="mix-blend-mode: normal"><tspan x="0" dy="0">YY-H</tspan></text><path d="M-16.006,303.41096v-310.81081h510.51052v310.81082z" fill="url(#color-1)" stroke-width="0"/></g><path d="M-20.22833,214.4092c0.82523,-1.39008 10.28284,-26.50808 10.28284,-26.50808c0.31418,-1.02156 5.29133,26.01862 5.081,32.11839c0.22341,-0.63913 13.99563,-45.89452 14.99363,-45.89452c1.38071,0 11.93078,58.26548 13.32634,58.93193c0.54312,0.25937 12.70268,-49.92292 13.70069,-49.92292c1.38071,0 17.52018,67.36961 19.13796,69.33396c0.34865,0.42333 4.6198,-55.08821 4.6198,-55.08821c0.45241,-0.45241 25.04134,63.80318 25.60462,64.2057c0.46903,0.33518 -2.36797,-70.94394 -1.31433,-70.94394c0.99801,0 24.23778,68.56624 25.68505,70.39542c-0.65864,-5.62034 1.46277,-74.89993 2.84348,-74.89993c1.38071,0 27.2793,73.17284 28.2943,75.6288c0.74285,-1.22282 22.87754,-71.12429 24.25825,-71.12429c1.1246,0 19.185,64.52199 20.0939,64.63145c0.93566,0.11268 17.56443,-55.62244 18.94514,-55.62244c1.38071,0 20.22535,49.14428 25.27613,59.4415c0.06042,-0.24596 10.91984,-62.44449 12.26141,-62.44449c1.16178,0 16.33033,40.17233 21.12633,52.32719c0.53875,-3.55344 13.53481,-51.31409 15.26617,-52.94468c1.3538,-1.27501 22.47588,43.6877 22.95708,44.88385c0.26596,-2.93205 8.3967,-57.77988 9.71949,-57.77988c1.09232,0 26.93341,52.21855 30.61386,59.17509c0.73028,-3.33371 22.3275,-65.18109 23.44019,-65.18109c0.88153,0 28.03898,49.44147 29.03112,51.01417c0.30218,-3.05104 7.1257,-42.00517 8.50642,-42.00517c0.90945,0 25.06307,49.46062 27.26963,53.4727c0.11862,-1.3098 2.8812,-48.96819 4.26191,-48.96819c0.88153,0 20.96444,42.85155 22.29834,45.69168c0.50991,-2.72854 18.36299,-59.20519 19.7437,-59.20519c1.0731,0 14.96974,26.47303 17.0433,31.03112c0.77977,1.71409 3.84346,160.96818 3.84346,160.96818l-517.10426,-1.44848c0,0 -2.17746,-151.46633 -1.10694,-153.2696z" fill="#87dc45" stroke="none" stroke-width="0.5" stroke-linecap="butt"/><g><path d="M312.82631,156.7727l25.14959,-73.93551l25.1496,73.93551z" fill="#ff5252" stroke="none" stroke-width="0" stroke-linecap="butt"/><path d="M314.85267,241.83992v-71.71697h45.93087v71.71697z" fill="#e8e8e8" stroke="none" stroke-width="0" stroke-linecap="butt"/><path d="M310.79994,203.88664v-9.56638h55.38724v9.56638z" fill="#d6d6d6" stroke="none" stroke-width="0" stroke-linecap="butt"/><path d="M313.6772,206.70027v-5.06455h49.63272v5.06455z" fill="#d6d6d6" stroke="none" stroke-width="0" stroke-linecap="butt"/><path d="M311.13768,173.86515v-20.25821h53.36088v20.25821z" fill="#d6d6d6" stroke="none" stroke-width="0" stroke-linecap="butt"/><path d="M351.53901,192.72765c0,0.18102 -27.23567,0.14879 -27.23567,0c0,-9.00197 4.40001,-16.2995 14.20991,-16.2995c9.8099,0 13.02575,7.29753 13.02575,16.2995z" data-paper-data="{&quot;index&quot;:null}" fill="#b2ffff" stroke="#9c9c9c" stroke-width="1.5" stroke-linecap="butt"/><path d="M338.31416,177.39766v14.84496" fill="none" stroke="#9c9c9c" stroke-width="1.5" stroke-linecap="round"/><path d="M323.96655,228.77647v-18.00169h8.44317v18.00169z" fill="#b2ffff" stroke="#9c9c9c" stroke-width="1.5" stroke-linecap="butt"/><path d="M343.21698,228.77647v-18.00169h8.44317v18.00169z" fill="#b2ffff" stroke="#9c9c9c" stroke-width="1.5" stroke-linecap="butt"/></g><path d="M263.00702,70.9445c-0.90776,-0.92542 -2.66014,-0.86498 -3.36186,-1.95494c-0.67764,-1.05255 0.01757,-2.5338 -0.3065,-3.74295c-0.28972,-1.081 -1.24203,-1.91434 -1.5015,-3.003c-0.27652,-1.16018 -0.05476,-2.38477 -0.06687,-3.57738c-0.01072,-1.05416 -0.05566,-6.67728 0.29581,-7.18566c1.79942,-2.60271 7.59557,-5.17778 10.63684,-5.73653c0.49998,-0.09186 9.70563,-0.08658 10.43403,-0.08725c2.92958,-0.00272 5.85917,-0.00273 8.78876,-0.00221c0.30135,-0.52585 0.6039,-1.05096 0.87308,-1.58753c0.84213,-1.67872 1.34206,-3.60115 2.59253,-5.00245c3.02533,-3.39026 5.88147,-3.54744 9.74733,-5.15108c2.73785,-1.13571 5.37402,-2.66013 8.2807,-3.24053c5.95005,-1.1881 12.96451,1.7854 18.4582,-1.06189c2.51308,-2.51308 3.27334,-3.92157 6.8934,-4.90952c1.05228,-0.28718 2.19409,0.11924 3.27193,-0.04815c2.57777,-0.40032 5.07102,-1.41396 7.67768,-1.51657c1.60002,-0.06298 3.21679,0.232 4.80374,0.01841c1.64033,-0.22077 3.15178,-1.07051 4.78954,-1.3096c1.17793,-0.17197 9.04475,-0.19673 10.35025,-0.20478c1.38926,-0.00857 6.23832,-0.0958 7.03161,0.36417c0.96817,0.56138 0.70391,2.21793 1.50151,3.003c0.29919,0.2945 0.82343,-0.17923 1.2159,-0.32826c0.97283,-0.36941 5.70744,-2.38766 7.12038,-2.89558c5.34322,-1.92074 11.3506,-5.18344 16.97596,-6.12626c0.25806,-0.04325 9.70567,-0.03228 9.90497,-0.03228c7.43187,0 15.63121,-1.3592 21.9873,3.4749c1.33927,1.01857 2.57059,2.2152 3.56933,3.56933c0.48816,0.66187 0.14345,1.82698 0.78773,2.33815c0.45161,0.35831 1.11309,-0.34125 1.68867,-0.37337c1.66408,-0.09289 3.33333,0 5,0c5.50489,0 11.01173,-0.03842 16.51652,0c3.48485,0.02432 5.9794,-0.56665 8.77978,2.23373c1.11318,1.11317 1.7321,2.68335 2.16686,4.19639c0.32938,1.14628 0.16096,2.38843 0.06687,3.57738c-0.04238,0.53561 -0.90354,1.22129 -0.4719,1.54122c0.93588,0.69366 2.34037,0.24989 3.43311,0.65358c3.10069,1.14549 6.42543,3.41919 9.1991,5.15179c1.30162,1.07753 2.96987,1.82507 3.90485,3.23257c2.29465,3.45431 2.87324,11.37851 1.88598,15.52074c-0.36793,1.54369 -2.49392,3.14706 -1.62493,4.47492c0.67427,1.03032 1.99903,1.50077 2.72141,2.49794c1.64836,2.27537 2.77762,5.27348 1.88269,8.13511c-2.40053,7.67592 -9.40355,11.84476 -15.4198,16.34467c-1.58689,1.18693 -4.28946,3.41805 -6.23622,3.49108c-6.42248,0.24095 -5.86962,-1.82021 -10.28753,-4.82403c-2.00051,-1.36018 -4.74633,-1.8056 -6.98029,-2.38323c-7.24113,1.08878 -14.28542,2.66763 -21.0873,5.53038c-1.59505,0.67132 -3.01158,1.75462 -4.65299,2.30293c-1.45472,0.48595 -3.06816,0.32505 -4.53687,0.76694c-1.07261,0.32272 -1.93018,1.1897 -3.00575,1.50239c-3.10838,0.90367 -6.34898,1.35949 -9.57592,1.61553c-8.12093,0.64436 -16.56161,0.00852 -24.71071,0.00852c-4.77972,0 -10.10111,0.59663 -14.83999,-0.01873c-5.27262,-0.68467 -9.35564,-2.72353 -14.74644,-2.94509c-2.10197,-0.82445 -4.65337,-0.93482 -6.30593,-2.47335c-0.97107,-0.90407 -0.34598,-2.63187 -0.58035,-3.93778c-0.09188,-0.51193 0.09868,-1.35197 -0.39718,-1.50893c-1.02074,-0.3231 -2.12063,0.32461 -3.19018,0.37337c-2.99989,0.13676 -6.00601,0 -9.00901,0c-6.50651,0 -13.01301,0 -19.51952,0c-2.31115,0 -4.6986,-0.65707 -6.93312,-0.06687c-1.08204,0.28579 -1.9169,1.23154 -3.00301,1.5015c-2.2231,0.55258 -4.82525,-0.01949 -6.76756,1.195c-1.30882,0.81838 -1.97756,2.50059 -3.36062,3.18608c-0.96657,0.47906 -2.22753,-0.30201 -3.23525,0.08303c-2.76768,1.0575 -4.78252,3.76163 -7.64103,4.54093c-1.15602,0.31516 -2.39596,0.04723 -3.59394,0.07085c-4.37018,0 -9.84632,0.78092 -14.0879,-0.06688c-1.22742,-0.24533 -2.22877,-1.14624 -3.38533,-1.62492c-1.70344,-0.70503 -3.73346,-0.78702 -5.1858,-1.92257c-1.80701,-1.41284 -1.49471,-4.52119 -3.13277,-6.12687c-0.92574,-0.90744 -2.74965,-0.8123 -3.36186,-1.95494c-1.46735,-2.73868 -0.03236,-7.02864 1.86036,-9.0881c0.84557,-0.92006 2.31166,-1.00896 3.309,-1.76184c2.24649,-1.69585 4.13353,-3.64298 6.49949,-5.01765c-0.19948,-0.61319 -0.364,-1.25306 -0.79947,-1.697z" fill="#edf7ff" stroke="none" stroke-width="0.5" stroke-linecap="butt"/><path d="M5.40292,35.92447c2.24512,-0.32234 4.49696,-0.65414 6.86108,-0.76381c5.00993,-0.23239 10.09732,-0.01473 15.11291,-0.01517c3.5224,-0.00032 7.63555,-0.69842 11.07161,0.032c2.12215,0.45112 6.95251,2.45267 9.25023,3.05447c5.76745,1.51057 11.5838,2.38224 17.27729,4.29514c4.28262,1.43888 7.06529,3.12903 11.56627,3.31891c1.16935,1.09486 2.22055,2.33149 3.50807,3.2846c1.00436,0.74349 2.43155,0.87212 3.30899,1.76184c0.93497,0.94805 1.21108,2.37409 1.89601,3.51595c0.94089,1.56857 2.30427,2.90852 2.97777,4.60914c0.33966,0.85766 -0.34574,1.89084 -0.05663,2.76684c0.12205,0.36982 0.71936,0.47724 1.09982,0.39413c2.91183,-0.63607 5.48926,-2.49999 8.43133,-2.97702c3.91642,-0.635 8.42974,-0.03228 12.41247,-0.03228c4.18175,0 10.60175,-0.92334 14.62627,0.0774c1.70825,0.42477 3.04247,1.79118 4.66285,2.47886c2.04128,0.86631 4.42581,1.08547 6.19668,2.42014c4.26378,3.21353 8.88353,8.22093 11.2848,12.92208c0.5005,1.001 1.07123,1.96986 1.5015,3.003c0.26617,0.63911 -0.0674,1.74846 0.57976,1.99441c1.1543,0.43868 2.45197,-0.32034 3.68567,-0.37337c3.33026,-0.14316 6.66667,-0.0031 10,0c7.27408,0.00675 14.49523,1.41331 21.5845,3.06391c1.58713,0.36953 3.1495,0.84291 4.74153,1.19067c1.16184,0.25379 2.60056,-0.14787 3.51471,0.61281c1.72386,1.43445 3.03224,3.42881 3.85123,5.51654c0.60931,1.5532 -0.0882,3.36906 0.27344,4.99783c0.24675,1.11133 1.29847,1.94292 1.51576,3.06038c0.08005,0.41172 0.06688,6.73686 0.06688,8.08189c0,1.5015 0.09036,3.00572 0,4.5045c-0.03469,0.57544 -0.63939,1.17724 -0.37338,1.68868c0.23078,0.4437 0.95135,0.35587 1.45076,0.38271c1.47325,0.07918 2.95041,-0.04458 4.42562,-0.06688c5.318,0 10.98807,-0.59783 16.26736,0.01217c2.53519,0.29293 4.96105,1.33242 7.50751,1.5015c1.05431,0.07 7.88661,-0.35801 9.02893,0.72007c0.9339,0.88137 -0.08327,2.69241 0.54193,3.81406c0.76576,1.37383 2.59825,1.91643 3.40484,3.2667c0.7664,1.28301 0.63434,2.92947 1.13715,4.33683c0.4096,1.14647 1.30229,2.10572 1.58744,3.2893c0.05292,0.21965 0.0943,6.04283 0.06688,6.58039c-0.07358,1.4426 0.4143,3.10651 -0.37338,4.31733c-1.31651,2.02374 -4.67484,1.73234 -6.36487,3.45644c-0.90744,0.92574 -0.84116,2.69859 -1.95494,3.36186c-3.0525,1.81781 -4.03487,-0.35757 -6.74595,0.3065c-0.851,0.20845 -1.54838,0.82043 -2.32257,1.23065c-4.54564,3.03604 -10.2871,7.92145 -15.69545,9.27985c-4.18326,1.05071 -9.73138,0.06688 -14.0879,0.06688c-2.41572,0 -8.31211,0.82435 -10.32334,-0.37337c-1.11378,-0.66327 -1.2842,-2.25257 -1.95494,-3.36186c-0.17924,-0.29643 -0.37101,-1.11848 -0.59357,-0.85302c-0.77586,0.92541 -0.77229,2.32504 -1.46807,3.31206c-0.86406,1.22574 -2.23892,2.02356 -3.13883,3.22323c-0.75417,1.00538 -0.84961,2.47578 -1.77451,3.32674c-3.22643,2.96851 -5.71616,2.20809 -9.77077,2.23373c-4.99945,0.03162 -10.00045,0 -15,0c-5.84584,0 -11.6917,0 -17.53754,0c-3.47618,0 -8.15562,-0.71288 -11.61155,-0.03228c-4.50877,0.88795 -7.35321,4.23251 -11.45576,5.84798c-5.3495,2.10649 -10.28472,3.19331 -15.97172,3.19331c-6.59767,0 -10.92978,0.24972 -15.44687,-5.41954c-1.22324,-1.53525 -2.58519,-3.07731 -3.20668,-4.9393c-0.22964,-0.68801 1.5956,-2.17515 0.89625,-1.98281c-1.02993,0.28325 -1.46044,1.5592 -2.19066,2.3388c-0.26074,0.10881 -9.21893,3.85663 -9.45665,3.91735c-5.92236,1.51268 -13.04744,1.5787 -19.13892,1.581c-2.93966,0.00111 -5.9085,0.39454 -8.81897,-0.01873c-1.67103,-0.23728 -3.24468,-0.97139 -4.91387,-1.22128c-1.7101,-0.25601 -3.48586,0.05948 -5.17939,-0.28976c-2.00544,-0.41357 -3.92319,-1.66308 -5.96246,-1.47807c-3.13102,0.28406 -6.33633,0.28804 -9.36242,1.14054c-1.33233,0.37534 -2.39984,1.45989 -3.74096,1.8025c-1.15267,0.29447 -2.37883,0.05525 -3.56848,0.0648c-3.05045,0.02448 -8.05632,0.68364 -11.08489,-0.06688c-0.38087,-0.09438 -1.14027,-136.07485 1.15633,-136.88999c1.23344,-0.43779 2.61503,-0.11684 3.92255,-0.17526c1.001,0 2.00201,0 3.00301,0h1.5015c0,0 1.1493,0 1.8894,0.77927z" fill="#edf7ff" stroke="none" stroke-width="0.5" stroke-linecap="butt"/><g><path d="M110.86554,158.05853l25.14959,-73.93551l25.1496,73.93551z" fill="#ff5252" stroke="none" stroke-width="0" stroke-linecap="butt"/><path d="M112.89191,241.83992v-71.71697h45.93087v71.71697z" fill="#e8e8e8" stroke="none" stroke-width="0" stroke-linecap="butt"/><path d="M120.65487,229.41939v-18.00169h8.44317v18.00169z" fill="#b2ffff" stroke="#9c9c9c" stroke-width="1.5" stroke-linecap="butt"/><path d="M139.90531,229.41939v-18.00169h8.44317v18.00169z" fill="#b2ffff" stroke="#9c9c9c" stroke-width="1.5" stroke-linecap="butt"/><path d="M108.16372,204.44937v-9.56638h55.38724v9.56638z" fill="#d6d6d6" stroke="none" stroke-width="0" stroke-linecap="butt"/><path d="M111.04098,207.26301v-5.06455h49.63272v5.06455z" fill="#d6d6d6" stroke="none" stroke-width="0" stroke-linecap="butt"/><path d="M109.1769,173.86515v-20.25821h53.36088v20.25821z" fill="#d6d6d6" stroke="none" stroke-width="0" stroke-linecap="butt"/><path d="M150.14112,192.94195c0,0.18102 -27.23567,0.14879 -27.23567,0c0,-9.00197 4.40001,-16.2995 14.20991,-16.2995c9.8099,0 13.02575,7.29753 13.02575,16.2995z" data-paper-data="{&quot;index&quot;:null}" fill="#b2ffff" stroke="#9c9c9c" stroke-width="1.5" stroke-linecap="butt"/><path d="M136.91626,192.45691v-14.84496" fill="none" stroke="#9c9c9c" stroke-width="1.5" stroke-linecap="round"/></g><g><path d="M237.13454,26.11279v-18.64461l30.17028,8.57223z" fill="#ffffff" stroke="#d5d5d5" stroke-width="2" stroke-linecap="butt"/><path d="M234.80799,54.18685v-48.86173h4.20283v48.86173z" fill="#e6b44a" stroke="#e6b44a" stroke-width="0" stroke-linecap="butt"/><path d="M210.15729,120.1264l26.68044,-78.43594l26.68044,78.43594z" fill="#ff5252" stroke="none" stroke-width="0" stroke-linecap="butt"/><path d="M211.63175,247.31614v-111.41404h50.41194v111.41404z" fill="#e8e8e8" stroke="none" stroke-width="0" stroke-linecap="butt"/><path d="M206.44229,176.0472v-9.56638h60.11541v9.56638z" fill="#d6d6d6" stroke="none" stroke-width="0" stroke-linecap="butt"/><path d="M209.56517,178.86083v-5.06455h53.86966v5.06455z" fill="#d6d6d6" stroke="none" stroke-width="0" stroke-linecap="butt"/><path d="M207.54196,138.39089v-20.25821h57.91606v20.25821z" fill="#d6d6d6" stroke="none" stroke-width="0" stroke-linecap="butt"/><path d="M230.65818,158.73226c0,0.1385 -12.73317,0.11383 -12.73317,0c0,-6.88761 2.05709,-12.47111 6.6434,-12.47111c4.5863,0 6.08978,5.5835 6.08978,12.47111z" data-paper-data="{&quot;index&quot;:null}" fill="#b2ffff" stroke="#9c9c9c" stroke-width="1.5" stroke-linecap="butt"/><path d="M254.58471,158.89645c0,0.1385 -12.73316,0.11384 -12.73316,0c0,-6.88761 2.05708,-12.47111 6.64339,-12.47111c4.5863,0 6.08978,5.58351 6.08978,12.47111z" data-paper-data="{&quot;index&quot;:null}" fill="#b2ffff" stroke="#9c9c9c" stroke-width="1.5" stroke-linecap="butt"/><path d="M231.07731,195.99271c0,0.1385 -12.73317,0.11383 -12.73317,0c0,-6.88761 2.05709,-12.47111 6.6434,-12.47111c4.5863,0 6.08978,5.5835 6.08978,12.47111z" data-paper-data="{&quot;index&quot;:null}" fill="#b2ffff" stroke="#9c9c9c" stroke-width="1.5" stroke-linecap="butt"/><path d="M224.5358,184.24203v11.35821" fill="none" stroke="#9c9c9c" stroke-width="1.5" stroke-linecap="round"/><path d="M254.71821,195.99271c0,0.1385 -12.73317,0.11383 -12.73317,0c0,-6.88761 2.05709,-12.47111 6.6434,-12.47111c4.5863,0 6.08978,5.5835 6.08978,12.47111z" data-paper-data="{&quot;index&quot;:null}" fill="#b2ffff" stroke="#9c9c9c" stroke-width="1.5" stroke-linecap="butt"/><path d="M248.1767,184.24203v11.35821" fill="none" stroke="#9c9c9c" stroke-width="1.5" stroke-linecap="round"/><path d="M231.01496,218.65156c0,0.1385 -12.73317,0.11383 -12.73317,0c0,-6.88761 2.05709,-12.47111 6.6434,-12.47111c4.5863,0 6.08978,5.5835 6.08978,12.47111z" data-paper-data="{&quot;index&quot;:null}" fill="#b2ffff" stroke="#9c9c9c" stroke-width="1.5" stroke-linecap="butt"/><path d="M224.47346,218.25909v-11.35821" fill="none" stroke="#9c9c9c" stroke-width="1.5" stroke-linecap="round"/><path d="M254.65586,218.65156c0,0.1385 -12.73317,0.11383 -12.73317,0c0,-6.88761 2.05709,-12.47111 6.6434,-12.47111c4.5863,0 6.08978,5.5835 6.08978,12.47111z" data-paper-data="{&quot;index&quot;:null}" fill="#b2ffff" stroke="#9c9c9c" stroke-width="1.5" stroke-linecap="butt"/><path d="M248.11435,218.2591v-11.35821" fill="none" stroke="#9c9c9c" stroke-width="1.5" stroke-linecap="round"/><path d="M224.76096,147.16712v11.35821" fill="none" stroke="#9c9c9c" stroke-width="1.5" stroke-linecap="round"/><path d="M248.40185,158.52533v-11.35821" fill="none" stroke="#9c9c9c" stroke-width="1.5" stroke-linecap="round"/></g><g stroke="none" stroke-width="0" stroke-linecap="butt"><path d="M-3.15521,325.06188v-85.52214h483.31644v85.52214z" fill="#f0f0f0"/><path d="M2.47298,325.51653v-103.59234h17.17639v103.59234z" fill="#fafafa"/><path d="M38.38728,325.51653v-103.59234h17.17639v103.59234z" fill="#fafafa"/><path d="M72.74007,325.51653v-103.59234h17.1764v103.59234z" fill="#fafafa"/><path d="M108.65436,325.51653v-103.59234h17.17639v103.59234z" fill="#fafafa"/><path d="M144.56866,325.51653v-103.59234h17.17639v103.59234z" fill="#fafafa"/><path d="M180.48294,325.51653v-103.59234h17.1764v103.59234z" fill="#fafafa"/><path d="M214.83575,325.51653v-103.59234h17.17639v103.59234z" fill="#fafafa"/><path d="M250.75004,325.51653v-103.59234h17.17639v103.59234z" fill="#fafafa"/><path d="M284.48294,325.6713v-103.59234h17.1764v103.59234z" fill="#fafafa"/><path d="M318.83575,325.6713v-103.59234h17.17639v103.59234z" fill="#fafafa"/><path d="M354.75004,325.6713v-103.59234h17.17639v103.59234z" fill="#fafafa"/><path d="M390.08353,326.24998v-103.59233h17.1764v103.59233z" fill="#fafafa"/><path d="M424.43634,326.24998v-103.59233h17.17639v103.59233z" fill="#fafafa"/><path d="M460.35063,326.24998v-103.59233h17.17639v103.59233z" fill="#fafafa"/></g></g></g></svg>