<svg version="1.1" xmlns="http://www.w3.org/2000/svg" xmlns:xlink="http://www.w3.org/1999/xlink" width="337" height="262.95131" viewBox="0,0,337,262.95131"><g transform="translate(-70.5,-47.52438)"><g data-paper-data="{&quot;isPaintingLayer&quot;:true}" fill-rule="nonzero" stroke-linecap="butt" stroke-linejoin="miter" stroke-miterlimit="10" stroke-dasharray="" stroke-dashoffset="0" style="mix-blend-mode: normal"><path d="M71.5,309.47569v-260.95131h335v260.95131z" fill="#000000" stroke="#000000" stroke-width="2"/><text transform="translate(128.67188,304.75737) scale(0.41811,0.41811)" font-size="40" xml:space="preserve" fill="#ffffff" fill-rule="nonzero" stroke="none" stroke-width="1" stroke-linecap="butt" stroke-linejoin="miter" stroke-miterlimit="10" stroke-dasharray="" stroke-dashoffset="0" font-family="Sans Serif" font-weight="normal" text-anchor="start" style="mix-blend-mode: normal"><tspan x="0" dy="0">&lt;уВпуГкуГГуВпуБзщЦЙуБШуВЛ Click to close&gt;</tspan></text><text transform="translate(75.24537,75.53939) scale(0.5,0.5)" font-size="40" xml:space="preserve" fill="#ffffff" fill-rule="nonzero" stroke="none" stroke-width="1" stroke-linecap="butt" stroke-linejoin="miter" stroke-miterlimit="10" stroke-dasharray="" stroke-dashoffset="0" font-family="Sans Serif" font-weight="normal" text-anchor="start" style="mix-blend-mode: normal"><tspan x="0" dy="0">уГБуГФуГБуГгуГСуВпуГкуГГуВлуГ╝уГЧуГмуГЯуВвуГая╝Б</tspan></text><path d="M382.17255,162.3792c0,2.5 -2.5,2.5 -2.5,2.5c-10.08252,0 -21.14078,0 -31.2233,0c-11.04938,0 -22.65276,-1.03055 -33.62282,0.30172c-9.60134,1.16604 -18.98621,2.19146 -28.66844,2.62063c-8.57957,0.3803 -16.87665,1.95629 -25.52428,1.95629c-31.88825,0 -63.7765,0.002 -95.66475,-0.00038c-10.06385,-0.34815 -20.03597,-1.44021 -30.08915,-1.95434c-4.95898,-0.25361 -10.05641,0.47903 -14.9973,-0.0089c-1.65039,-0.16298 -3.22867,-0.80857 -4.87864,-0.97573c-2.91228,-0.29505 -5.87174,0.31841 -8.78155,0c-7.16256,-0.78378 -13.54693,-1.4921 -20.72939,-0.03638c0,0 -2.45145,0.49029 -2.94174,-1.96116c-0.49029,-2.45145 1.96116,-2.94174 1.96116,-2.94174c11.83945,-2.33921 24.04839,-0.25759 35.86285,0.93935c4.84987,0.49134 9.88853,-0.25804 14.75998,-0.0089c9.99667,0.51124 19.91382,1.59964 29.92056,1.94857c31.85932,-0.00242 63.71865,-0.00038 95.57797,-0.00038c8.54524,0 16.73196,-1.55407 25.21359,-1.94663c6.20285,-0.28709 12.44395,-0.5327 18.63516,-0.97404c4.64622,-0.33121 5.04052,-1.05582 9.74488,-1.62023c11.18035,-1.34138 22.96369,-0.33774 34.22191,-0.33774c10.08252,0 20.16505,0 30.24757,0h0.97573c0,0 2.5,0 2.5,2.5z" fill="#ffffff" stroke="none" stroke-width="0.5"/><text transform="translate(86.00265,124.20055) scale(0.5,0.5)" font-size="40" xml:space="preserve" fill="#ffffff" fill-rule="nonzero" stroke="none" stroke-width="1" stroke-linecap="butt" stroke-linejoin="miter" stroke-miterlimit="10" stroke-dasharray="" stroke-dashoffset="0" font-family="Sans Serif" font-weight="normal" text-anchor="start" style="mix-blend-mode: normal"><tspan x="0" dy="0">уВкуГ╝уГИуГАуВдуГдЁЯТО</tspan><tspan x="0" dy="46.15px">1хЫЮуБоуВпуГкуГГуВпуБМ1,000уБлуБкуВЛя╝Б</tspan></text></g></g></svg>